:SAMPLES-PER-SECOND 30
:FULLY-SPECIFIED
:DEGREES
656
root  -47.7301 37.9875 1.5939 -7.89655 -85.8234 -4.1759
RightUpLeg  -16.4961 -4.74179 -1.89514
RightLeg  18.2872 5.83885 1.94998
RightFoot  7.95329 -0.256364 1.82198
RightToes  -1.33073e-015 0 -3.6325e-017
Spine  2.21853 -2.15198 5.30157
Spine1  12.9689 -1.48839 -1.88272
HEad  -8.58587 0.850411 -2.00074
LeftShoulder1  0.919454 -0.021107 -19.5689
LeftArm  -5.89666 -35.156 -35.1481
LeftForeArm  -11.0178 -53.4409 -16.1062
LeftHand  -0.0387058 5.6386 -2.35989
RightShoulder  0.220958 -2.5197 16.2087
RightArm  -7.95042 29.2468 38.7384
RightForeArm  -14.5251 61.6558 22.9643
RightHand  -0.236992 1.46557 -4.15998
LeftUpLeg  15.4413 -1.61266 -1.59561
LeftLeg  32.474 -0.706895 -0.204194
LeftFoot  -24.2865 0.00116069 -1.34789
LeftToes  -1.03319e-009 7.52634e-011 -3.26162e-012
657
root  -48.7078 37.8209 1.38839 11.1683 -84.3187 -22.9805
RightUpLeg  -17.4253 -5.63045 0.171435
RightLeg  22.7192 5.14089 2.13514
RightFoot  5.32718 0.0131328 0.160887
RightToes  -1.33073e-015 0 -3.6325e-017
Spine  3.66431 -2.74481 6.58071
Spine1  12.0427 -2.18871 0.180892
HEad  -9.43782 0.980476 -2.13057
LeftShoulder1  0.962482 -0.109914 -20.1498
LeftArm  -5.30875 -38.1418 -34.8374
LeftForeArm  -13.2208 -50.3046 -14.4941
LeftHand  -0.0460698 5.79033 -2.805
RightShoulder  0.334731 -1.96242 15.2525
RightArm  -7.59329 32.6474 38.7438
RightForeArm  -18.5348 57.1687 19.2009
RightHand  -0.192284 1.95458 -3.21759
LeftUpLeg  10.3247 -1.23754 2.08556
LeftLeg  43.6178 -2.7279 -2.37815
LeftFoot  -19.2476 -0.312936 -6.8189
LeftToes  -1.03319e-009 7.52634e-011 -3.26162e-012
658
root  -49.5672 37.7659 1.13945 17.6844 -81.6803 -28.9207
RightUpLeg  -17.8237 -6.59665 1.98221
RightLeg  25.2445 3.69279 1.66835
RightFoot  2.94155 0.127089 -0.836247
RightToes  -1.33073e-015 0 -3.6325e-017
Spine  4.814 -3.41029 7.65895
Spine1  11.3077 -2.94368 1.82631
HEad  -10.7682 0.0649793 -1.5583
LeftShoulder1  1.08414 -0.621297 -19.8354
LeftArm  -4.81463 -41.5627 -35.0954
LeftForeArm  -14.7344 -46.7313 -12.8735
LeftHand  -0.0501224 5.9301 -3.15529
RightShoulder  0.427445 -1.45805 14.1442
RightArm  -7.87607 35.5676 38.2927
RightForeArm  -22.4141 52.884 16.5189
RightHand  -0.196455 2.70064 -3.02857
LeftUpLeg  3.04293 -1.6503 5.16529
LeftLeg  54.78 -2.25033 -2.81026
LeftFoot  -7.88442 0.233741 -9.32558
LeftToes  -1.03319e-009 7.52634e-011 -3.26162e-012
659
root  -50.4134 37.8151 0.967331 20.8716 -80.433 -32.2773
RightUpLeg  -16.8312 -7.15874 3.22461
RightLeg  26.5169 3.08063 1.43367
RightFoot  0.803006 0.107604 -0.961302
RightToes  -1.33073e-015 0 -3.6325e-017
Spine  6.31732 -3.65502 9.58947
Spine1  11.1622 -2.67913 0.953615
HEad  -12.8102 -0.869286 -0.779295
LeftShoulder1  1.21634 -1.39687 -18.206
LeftArm  -4.36468 -45.0916 -35.5685
LeftForeArm  -16.8414 -43.0095 -11.4508
LeftHand  -0.0383166 5.55919 -3.33812
RightShoulder  0.404093 -1.57331 14.2447
RightArm  -8.09961 39.3122 37.2394
RightForeArm  -25.7785 48.5191 14.3369
RightHand  -0.209825 2.9555 -3.14257
LeftUpLeg  -3.14739 -1.0734 6.79136
LeftLeg  63.3409 -0.430066 -0.32303
LeftFoot  4.63307 0.739283 -5.2514
LeftToes  -1.03319e-009 7.52634e-011 -3.26162e-012
660
root  -51.1793 37.9284 0.821325 20.1838 -79.8022 -31.7576
RightUpLeg  -15.6251 -8.11612 3.59742
RightLeg  27.2044 3.32288 1.60872
RightFoot  -0.825948 0.118139 -1.34501
RightToes  -1.33073e-015 0 -3.6325e-017
Spine  7.93295 -3.82912 9.89921
Spine1  10.8964 -2.74373 1.36599
HEad  -14.63 -1.35327 -0.749711
LeftShoulder1  1.31253 -1.8701 -17.7969
LeftArm  -4.1531 -48.0422 -35.5285
LeftForeArm  -18.906 -39.8289 -10.4068
LeftHand  -0.058704 6.25483 -2.64843
RightShoulder  0.489306 -1.06175 13.2073
RightArm  -8.14842 42.9084 36.6617
RightForeArm  -28.6416 43.3729 12.2034
RightHand  -0.188207 3.26022 -2.77555
LeftUpLeg  -8.15102 -0.216771 7.16539
LeftLeg  68.7146 -0.0571924 0.543453
LeftFoot  4.85679 0.390893 -2.90797
LeftToes  -1.03319e-009 7.52634e-011 -3.26162e-012
661
root  -51.9621 38.1718 0.72527 19.8305 -80.1236 -31.1595
RightUpLeg  -14.1724 -8.66493 3.57503
RightLeg  26.6109 4.03878 1.95913
RightFoot  -1.79914 0.134489 -1.75291
RightToes  -1.33073e-015 0 -3.6325e-017
Spine  8.9928 -3.82569 10.3654
Spine1  10.33 -2.47805 0.54528
HEad  -15.8392 -1.43033 -0.388267
LeftShoulder1  1.36026 -2.22175 -17.0875
LeftArm  -4.32549 -50.2528 -35.0547
LeftForeArm  -19.3456 -36.8916 -9.46464
LeftHand  -0.0882133 6.93012 -3.48197
RightShoulder  0.606743 -0.379207 12.4342
RightArm  -7.55443 46.3947 36.7616
RightForeArm  -30.9622 37.7868 10.2754
RightHand  -0.134701 4.08577 -1.91795
LeftUpLeg  -12.5516 1.19528 6.89854
LeftLeg  70.7067 -0.815164 -1.70694
LeftFoot  1.81821 0.339752 -3.07914
LeftToes  -1.03319e-009 7.52634e-011 -3.26162e-012
662
root  -52.7136 38.4423 0.650142 18.6947 -80.7691 -29.3458
RightUpLeg  -13.1628 -8.89271 3.24269
RightLeg  25.8178 4.62818 2.25302
RightFoot  -2.40881 0.132405 -1.90391
RightToes  -1.33073e-015 0 -3.6325e-017
Spine  9.5197 -3.54149 10.741
Spine1  9.87075 -1.92292 -0.651276
HEad  -16.7919 -1.52926 -0.169495
LeftShoulder1  1.44916 -2.84539 -16.0733
LeftArm  -3.83575 -52.2552 -34.9462
LeftForeArm  -21.2683 -34.1079 -8.71609
LeftHand  -0.0846095 6.96637 -3.1083
RightShoulder  0.672824 0.00177886 12.1947
RightArm  -7.06298 49.4877 36.6566
RightForeArm  -32.6096 32.6801 8.78114
RightHand  -0.118878 4.35802 -1.69475
LeftUpLeg  -16.4446 2.4398 5.99315
LeftLeg  69.4108 -1.47278 -3.5461
LeftFoot  0.326776 0.440443 -4.2913
LeftToes  -1.03319e-009 7.52634e-011 -3.26162e-012
663
root  -53.4561 38.727 0.6334 17.9373 -81.5789 -28.0285
RightUpLeg  -11.8471 -9.10528 2.77691
RightLeg  24.6305 5.43922 2.70069
RightFoot  -2.7355 0.145701 -2.18053
RightToes  -1.33073e-015 0 -3.6325e-017
Spine  9.89688 -3.14896 11.207
Spine1  9.68811 -1.33196 -1.70085
HEad  -17.5067 -1.94401 0.0308614
LeftShoulder1  1.55329 -3.45731 -15.5093
LeftArm  -3.80247 -54.165 -34.453
LeftForeArm  -21.7028 -31.683 -8.05558
LeftHand  -0.114779 7.54617 -3.67231
RightShoulder  0.747908 0.603399 11.1008
RightArm  -6.98034 51.8311 36.3664
RightForeArm  -34.1692 28.0527 7.60038
RightHand  -0.0990645 4.22654 -1.47428
LeftUpLeg  -19.2375 3.44361 4.94955
LeftLeg  65.2665 -1.88745 -3.82168
LeftFoot  -1.26424 0.270725 -2.99032
LeftToes  -1.03319e-009 7.52634e-011 -3.26162e-012
664
root  -54.1806 38.9888 0.625818 17.1306 -82.3412 -26.4443
RightUpLeg  -10.8157 -9.23995 2.31618
RightLeg  23.4199 6.09402 3.04862
RightFoot  -2.94593 0.155111 -2.38593
RightToes  -1.33073e-015 0 -3.6325e-017
Spine  10.069 -2.60598 10.6506
Spine1  9.56713 -1.09876 -1.35724
HEad  -18.714 -2.37982 -0.275833
LeftShoulder1  1.60495 -3.68782 -15.5212
LeftArm  -4.16357 -56.0281 -33.8805
LeftForeArm  -22.2282 -29.4463 -7.48686
LeftHand  -0.133804 7.84562 -4.01903
RightShoulder  0.805879 1.28433 9.51292
RightArm  -6.66903 54.2214 36.0432
RightForeArm  -35.642 23.5943 6.57523
RightHand  -0.0434329 5.03024 -0.799598
LeftUpLeg  -21.1024 4.07695 4.25737
LeftLeg  58.268 -2.18429 -3.32087
LeftFoot  -2.56555 0.201634 -2.43343
LeftToes  -1.03319e-009 7.52634e-011 -3.26162e-012
665
root  -54.8429 39.1874 0.652497 16.501 -82.9174 -24.6539
RightUpLeg  -10.5005 -9.39207 1.92753
RightLeg  22.5661 6.65463 3.36062
RightFoot  -3.29144 0.166216 -2.67399
RightToes  -1.33073e-015 0 -3.6325e-017
Spine  10.1622 -2.19842 10.3251
Spine1  8.94682 -0.919424 -1.35804
HEad  -19.9361 -2.28885 -0.332424
LeftShoulder1  1.63884 -3.97719 -15.0708
LeftArm  -3.97098 -57.6528 -33.3994
LeftForeArm  -23.2938 -27.5831 -7.06133
LeftHand  -0.119446 7.65162 -3.74798
RightShoulder  0.865191 1.894 8.62638
RightArm  -6.15862 56.3398 35.4008
RightForeArm  -36.6524 19.8116 5.84949
RightHand  0.0369071 5.4969 0.070013
LeftUpLeg  -22.2067 3.75944 3.68813
LeftLeg  48.6191 -2.42121 -2.49764
LeftFoot  -3.39375 0.181506 -2.32986
LeftToes  -1.03319e-009 7.52634e-011 -3.26162e-012
